<?xml version="1.0" standalone="no"?>
<!DOCTYPE svg PUBLIC "-//W3C//DTD SVG 1.1//EN" "http://www.w3.org/Graphics/SVG/1.1/DTD/svg11.dtd">
<svg version="1.1" xmlns="http://www.w3.org/2000/svg" viewBox="0 0 327.2652077346138 340.22926481477043" width="981.7956232038414" height="1020.6877944443113"><!-- svg-source:excalidraw --><metadata></metadata><defs><style class="style-fonts">
      </style></defs><g stroke-linecap="round"><g transform="translate(59.24874312151951 131.29339952604641) rotate(0 -17.21418502907909 39.911970019575165)"><path d="M0 0 C5.65 8.36, 11.3 16.72, 14.54 21.5 M0 0 C4.7 6.95, 9.39 13.89, 14.54 21.5 M14.54 21.5 C14.54 22.03, 14.54 22.55, 14.54 22.96 M14.54 21.5 C14.54 22.03, 14.54 22.56, 14.54 22.96 M14.54 22.96 C14.65 45.44, 14.76 67.91, 14.82 81.15 M14.54 22.96 C14.64 44.57, 14.75 66.19, 14.82 81.15 M14.82 81.15 C1.07 81.18, -12.69 81.22, -48.47 81.31 M14.82 81.15 C-1.17 81.19, -17.17 81.23, -48.47 81.31 M-48.47 81.31 C-48.75 51.41, -49.03 21.52, -49.25 -1.48 M-48.47 81.31 C-48.71 56.11, -48.94 30.92, -49.25 -1.48 M-49.25 -1.48 C-38.44 -1.16, -27.63 -0.83, 0 0 M-49.25 -1.48 C-30 -0.9, -10.75 -0.32, 0 0" stroke="#d5896f" stroke-width="4" fill="none"></path></g></g><mask></mask><g stroke-linecap="round"><g transform="translate(21.258925350739446 156.90064443159645) rotate(0 20.775632741702793 0.4467878008963453)"><path d="M0 0 C11.11 0.24, 22.23 0.48, 41.55 0.89 M0 0 C9.57 0.21, 19.15 0.41, 41.55 0.89" stroke="#d5896f" stroke-width="4" fill="none"></path></g></g><mask></mask><g stroke-linecap="round"><g transform="translate(21.705713151633972 175.21894426836297) rotate(0 20.32884494080463 0)"><path d="M0 0 C8.89 0, 17.78 0, 40.66 0 M0 0 C16.06 0, 32.13 0, 40.66 0" stroke="#d5896f" stroke-width="4" fill="none"></path></g></g><mask></mask><g stroke-linecap="round"><g transform="translate(21.705713151633972 192.64366850334045) rotate(0 20.32884494080463 0)"><path d="M0 0 C10.19 0, 20.37 0, 40.66 0 M0 0 C14.76 0, 29.53 0, 40.66 0" stroke="#d5896f" stroke-width="4" fill="none"></path></g></g><mask></mask><g stroke-linecap="round"><g transform="translate(21.705713151633972 167.17676385222148) rotate(0 20.32884494080463 0)"><path d="M0 0 C12.8 0, 25.6 0, 40.66 0 M0 0 C16.13 0, 32.26 0, 40.66 0" stroke="#d5896f" stroke-width="4" fill="none"></path></g></g><mask></mask><g stroke-linecap="round"><g transform="translate(21.705713151633972 185.49506368899165) rotate(0 20.32884494080463 0)"><path d="M0 0 C13.21 0, 26.43 0, 40.66 0 M0 0 C14.45 0, 28.9 0, 40.66 0" stroke="#d5896f" stroke-width="4" fill="none"></path></g></g><mask></mask><g stroke-linecap="round"><g transform="translate(294.1426990460277 82.88022582695339) rotate(0 -17.21418502907909 39.911970019575165)"><path d="M0 0 C3.97 5.87, 7.94 11.75, 14.54 21.5 M0 0 C3.79 5.61, 7.58 11.21, 14.54 21.5 M14.54 21.5 C14.54 21.95, 14.54 22.4, 14.54 22.96 M14.54 21.5 C14.54 21.88, 14.54 22.26, 14.54 22.96 M14.54 22.96 C14.63 42.72, 14.73 62.47, 14.82 81.15 M14.54 22.96 C14.62 39, 14.69 55.04, 14.82 81.15 M14.82 81.15 C-1.21 81.19, -17.24 81.23, -48.47 81.31 M14.82 81.15 C-6.38 81.2, -27.57 81.25, -48.47 81.31 M-48.47 81.31 C-48.68 58.48, -48.9 35.66, -49.25 -1.48 M-48.47 81.31 C-48.71 55.22, -48.96 29.13, -49.25 -1.48 M-49.25 -1.48 C-32.36 -0.97, -15.46 -0.47, 0 0 M-49.25 -1.48 C-35.75 -1.08, -22.25 -0.67, 0 0" stroke="#d5896f" stroke-width="4" fill="none"></path></g></g><mask></mask><g stroke-linecap="round"><g transform="translate(256.15288127524764 108.48747073250343) rotate(0 20.775632741702793 0.4467878008963453)"><path d="M0 0 C15.44 0.33, 30.88 0.66, 41.55 0.89 M0 0 C14.87 0.32, 29.74 0.64, 41.55 0.89" stroke="#d5896f" stroke-width="4" fill="none"></path></g></g><mask></mask><g stroke-linecap="round"><g transform="translate(256.59966907614944 126.80577056927359) rotate(0 20.32884494080463 0)"><path d="M0 0 C15.32 0, 30.65 0, 40.66 0 M0 0 C15.84 0, 31.67 0, 40.66 0" stroke="#d5896f" stroke-width="4" fill="none"></path></g></g><mask></mask><g stroke-linecap="round"><g transform="translate(256.59966907614944 144.23049480424743) rotate(0 20.32884494080463 0)"><path d="M0 0 C8.61 0, 17.23 0, 40.66 0 M0 0 C12.4 0, 24.79 0, 40.66 0" stroke="#d5896f" stroke-width="4" fill="none"></path></g></g><mask></mask><g stroke-linecap="round"><g transform="translate(256.59966907614944 118.76359015312846) rotate(0 20.32884494080463 0)"><path d="M0 0 C10.54 0, 21.07 0, 40.66 0 M0 0 C11.55 0, 23.11 0, 40.66 0" stroke="#d5896f" stroke-width="4" fill="none"></path></g></g><mask></mask><g stroke-linecap="round"><g transform="translate(256.59966907614944 137.08188998989863) rotate(0 20.32884494080463 0)"><path d="M0 0 C9.87 0, 19.74 0, 40.66 0 M0 0 C14.51 0, 29.02 0, 40.66 0" stroke="#d5896f" stroke-width="4" fill="none"></path></g></g><mask></mask><g stroke-linecap="round"><g transform="translate(302.44483467125247 221.80345965162996) rotate(0 -17.21418502907909 39.911970019575165)"><path d="M0 0 C5.81 8.6, 11.63 17.2, 14.54 21.5 M0 0 C4.95 7.32, 9.89 14.63, 14.54 21.5 M14.54 21.5 C14.54 22.04, 14.54 22.57, 14.54 22.96 M14.54 21.5 C14.54 21.99, 14.54 22.48, 14.54 22.96 M14.54 22.96 C14.65 45.56, 14.76 68.15, 14.82 81.15 M14.54 22.96 C14.64 44.52, 14.75 66.07, 14.82 81.15 M14.82 81.15 C-7.17 81.2, -29.16 81.26, -48.47 81.31 M14.82 81.15 C1.3 81.18, -12.22 81.22, -48.47 81.31 M-48.47 81.31 C-48.78 48.54, -49.09 15.78, -49.25 -1.48 M-48.47 81.31 C-48.71 55.54, -48.95 29.77, -49.25 -1.48 M-49.25 -1.48 C-34.88 -1.05, -20.5 -0.62, 0 0 M-49.25 -1.48 C-31.26 -0.94, -13.27 -0.4, 0 0" stroke="#70a288" stroke-width="4" fill="none"></path></g></g><mask></mask><g stroke-linecap="round"><g transform="translate(264.4550169004724 247.41070455718) rotate(0 20.775632741702793 0.4467878008963453)"><path d="M0 0 C16.61 0.36, 33.21 0.71, 41.55 0.89 M0 0 C11.84 0.25, 23.69 0.51, 41.55 0.89" stroke="#70a288" stroke-width="4" fill="none"></path></g></g><mask></mask><g stroke-linecap="round"><g transform="translate(264.9018047013669 265.7290043939429) rotate(0 20.32884494080463 0)"><path d="M0 0 C11.21 0, 22.42 0, 40.66 0 M0 0 C10.3 0, 20.6 0, 40.66 0" stroke="#70a288" stroke-width="4" fill="none"></path></g></g><mask></mask><g stroke-linecap="round"><g transform="translate(264.9018047013669 283.1537286289167) rotate(0 20.32884494080463 0)"><path d="M0 0 C15.57 0, 31.14 0, 40.66 0 M0 0 C8.16 0, 16.32 0, 40.66 0" stroke="#70a288" stroke-width="4" fill="none"></path></g></g><mask></mask><g stroke-linecap="round"><g transform="translate(264.9018047013669 257.68682397780503) rotate(0 20.32884494080463 0)"><path d="M0 0 C13.51 0, 27.01 0, 40.66 0 M0 0 C11.66 0, 23.33 0, 40.66 0" stroke="#70a288" stroke-width="4" fill="none"></path></g></g><mask></mask><g stroke-linecap="round"><g transform="translate(264.9018047013669 276.0051238145752) rotate(0 20.32884494080463 0)"><path d="M0 0 C8.47 0, 16.93 0, 40.66 0 M0 0 C14.48 0, 28.96 0, 40.66 0" stroke="#70a288" stroke-width="4" fill="none"></path></g></g><mask></mask><g stroke-linecap="round"><g transform="translate(131.97329291517235 11.481398330131924) rotate(0 -17.21418502907909 39.911970019575165)"><path d="M0 0 C4.03 5.96, 8.05 11.91, 14.54 21.5 M0 0 C4.87 7.21, 9.74 14.41, 14.54 21.5 M14.54 21.5 C14.54 22.05, 14.54 22.6, 14.54 22.96 M14.54 21.5 C14.54 21.96, 14.54 22.42, 14.54 22.96 M14.54 22.96 C14.64 44.35, 14.75 65.73, 14.82 81.15 M14.54 22.96 C14.62 39.82, 14.7 56.68, 14.82 81.15 M14.82 81.15 C-0.74 81.19, -16.29 81.23, -48.47 81.31 M14.82 81.15 C-9.68 81.21, -34.18 81.27, -48.47 81.31 M-48.47 81.31 C-48.68 58.75, -48.89 36.19, -49.25 -1.48 M-48.47 81.31 C-48.75 50.94, -49.04 20.57, -49.25 -1.48 M-49.25 -1.48 C-32.69 -0.98, -16.13 -0.49, 0 0 M-49.25 -1.48 C-32 -0.96, -14.76 -0.44, 0 0" stroke="#70a288" stroke-width="4" fill="none"></path></g></g><mask></mask><g stroke-linecap="round"><g transform="translate(93.98347514439229 37.08864323568196) rotate(0 20.775632741702793 0.4467878008963453)"><path d="M0 0 C9.04 0.19, 18.08 0.39, 41.55 0.89 M0 0 C11.96 0.26, 23.92 0.51, 41.55 0.89" stroke="#70a288" stroke-width="4" fill="none"></path></g></g><mask></mask><g stroke-linecap="round"><g transform="translate(94.43026294527954 55.40694307244485) rotate(0 20.32884494080463 0)"><path d="M0 0 C15.06 0, 30.12 0, 40.66 0 M0 0 C14.13 0, 28.25 0, 40.66 0" stroke="#70a288" stroke-width="4" fill="none"></path></g></g><mask></mask><g stroke-linecap="round"><g transform="translate(94.43026294527954 72.83166730742596) rotate(0 20.32884494080463 0)"><path d="M0 0 C12.13 0, 24.27 0, 40.66 0 M0 0 C13.52 0, 27.05 0, 40.66 0" stroke="#70a288" stroke-width="4" fill="none"></path></g></g><mask></mask><g stroke-linecap="round"><g transform="translate(94.43026294527954 47.36476265630699) rotate(0 20.32884494080463 0)"><path d="M0 0 C13.95 0, 27.89 0, 40.66 0 M0 0 C11.14 0, 22.29 0, 40.66 0" stroke="#70a288" stroke-width="4" fill="none"></path></g></g><mask></mask><g stroke-linecap="round"><g transform="translate(94.43026294527954 65.68306249307716) rotate(0 20.32884494080463 0)"><path d="M0 0 C12.42 0, 24.85 0, 40.66 0 M0 0 C9.48 0, 18.96 0, 40.66 0" stroke="#70a288" stroke-width="4" fill="none"></path></g></g><mask></mask><g stroke-linecap="round"><g transform="translate(126.99200647278121 248.92392644548818) rotate(0 -17.21418502907909 39.911970019575165)"><path d="M0 0 C4.29 6.34, 8.58 12.69, 14.54 21.5 M0 0 C3.49 5.17, 6.99 10.33, 14.54 21.5 M14.54 21.5 C14.54 21.93, 14.54 22.36, 14.54 22.96 M14.54 21.5 C14.54 21.94, 14.54 22.38, 14.54 22.96 M14.54 22.96 C14.63 41.12, 14.71 59.28, 14.82 81.15 M14.54 22.96 C14.63 41.33, 14.72 59.69, 14.82 81.15 M14.82 81.15 C-7.46 81.2, -29.73 81.26, -48.47 81.31 M14.82 81.15 C-1.48 81.19, -17.79 81.23, -48.47 81.31 M-48.47 81.31 C-48.68 58.59, -48.9 35.87, -49.25 -1.48 M-48.47 81.31 C-48.7 56.33, -48.94 31.36, -49.25 -1.48 M-49.25 -1.48 C-33.17 -1, -17.08 -0.51, 0 0 M-49.25 -1.48 C-29.78 -0.9, -10.31 -0.31, 0 0" stroke="#d5896f" stroke-width="4" fill="none"></path></g></g><mask></mask><g stroke-linecap="round"><g transform="translate(89.00218870200115 274.5311713510382) rotate(0 20.775632741702793 0.4467878008963453)"><path d="M0 0 C11.25 0.24, 22.49 0.48, 41.55 0.89 M0 0 C14.34 0.31, 28.68 0.62, 41.55 0.89" stroke="#d5896f" stroke-width="4" fill="none"></path></g></g><mask></mask><g stroke-linecap="round"><g transform="translate(89.44897650290295 292.84947118780474) rotate(0 20.32884494080463 0)"><path d="M0 0 C11.78 0, 23.56 0, 40.66 0 M0 0 C9.99 0, 19.99 0, 40.66 0" stroke="#d5896f" stroke-width="4" fill="none"></path></g></g><mask></mask><g stroke-linecap="round"><g transform="translate(89.44897650290295 310.2741954227822) rotate(0 20.32884494080463 0)"><path d="M0 0 C14.29 0, 28.57 0, 40.66 0 M0 0 C16.03 0, 32.07 0, 40.66 0" stroke="#d5896f" stroke-width="4" fill="none"></path></g></g><mask></mask><g stroke-linecap="round"><g transform="translate(89.44897650290295 284.80729077166325) rotate(0 20.32884494080463 0)"><path d="M0 0 C11.86 0, 23.73 0, 40.66 0 M0 0 C14.85 0, 29.7 0, 40.66 0" stroke="#d5896f" stroke-width="4" fill="none"></path></g></g><mask></mask><g stroke-linecap="round"><g transform="translate(89.44897650290295 303.1255906084334) rotate(0 20.32884494080463 0)"><path d="M0 0 C8.25 0, 16.49 0, 40.66 0 M0 0 C13.69 0, 27.38 0, 40.66 0" stroke="#d5896f" stroke-width="4" fill="none"></path></g></g><mask></mask><g stroke-linecap="round"><g transform="translate(58.3525291977312 128.06431032471664) rotate(0 12.25628141974994 -16.89854036698489)"><path d="M0 0 C7.25 -9.99, 14.49 -19.98, 24.51 -33.8 M0 0 C7.8 -10.76, 15.6 -21.51, 24.51 -33.8" stroke="#04395e" stroke-width="4" fill="none"></path></g></g><mask></mask><g stroke-linecap="round"><g transform="translate(150.35468413569106 72.4738419534333) rotate(0 45.82818645675434 16.30350733958403)"><path d="M0 0 C32.13 11.43, 64.26 22.86, 91.66 32.61 M0 0 C31.45 11.19, 62.91 22.38, 91.66 32.61" stroke="#04395e" stroke-width="4" fill="none"></path></g></g><mask></mask><g stroke-linecap="round"><g transform="translate(50.81153921123041 215.3960842255965) rotate(0 11.768468025225957 29.88451145851832)"><path d="M0 0 C6.46 16.41, 12.92 32.81, 23.54 59.77 M0 0 C9.22 23.42, 18.45 46.85, 23.54 59.77" stroke="#04395e" stroke-width="4" fill="none"></path></g></g><mask></mask><g stroke-linecap="round"><g transform="translate(145.12409059634592 299.5664211412586) rotate(0 53.02009664432808 -17.818541784707122)"><path d="M0 0 C27.81 -9.35, 55.63 -18.69, 106.04 -35.64 M0 0 C22.65 -7.61, 45.3 -15.22, 106.04 -35.64" stroke="#04395e" stroke-width="4" fill="none"></path></g></g><mask></mask><g stroke-linecap="round"><g transform="translate(128.30531285931647 246.25956806749127) rotate(0 56.659226471916554 -44.638160384770345)"><path d="M0 0 C33.13 -26.1, 66.26 -52.2, 113.32 -89.28 M0 0 C29.32 -23.1, 58.63 -46.19, 113.32 -89.28" stroke="#04395e" stroke-width="4" fill="none"></path></g></g><mask></mask></svg>